<svg xmlns="http://www.w3.org/2000/svg" width="218" height="28" fill="none"><path fill="#FC832C" d="M1.207 23.09v-15H4.19v1.833h.135c.133-.293.325-.592.576-.895.255-.307.587-.563.994-.767.412-.208.923-.312 1.534-.312a4.1 4.1 0 0 1 2.202.625c.672.412 1.21 1.034 1.612 1.868.402.828.604 1.868.604 3.118 0 1.216-.197 2.244-.59 3.082-.388.833-.918 1.466-1.59 1.896a4.084 4.084 0 0 1-2.245.64c-.587 0-1.087-.098-1.499-.292a3.1 3.1 0 0 1-1.001-.731 3.714 3.714 0 0 1-.597-.902h-.092v5.838H1.207Zm2.962-9.544c0 .648.09 1.214.27 1.697.18.483.44.86.781 1.13.341.264.755.397 1.243.397.492 0 .91-.135 1.25-.405.341-.275.599-.653.774-1.136.18-.488.27-1.05.27-1.683 0-.63-.087-1.184-.263-1.662-.175-.479-.433-.853-.774-1.123-.34-.27-.76-.404-1.257-.404-.492 0-.909.13-1.25.39-.336.26-.594.63-.774 1.108-.18.478-.27 1.042-.27 1.69Zm18.371-2.344-2.77.17a1.432 1.432 0 0 0-.305-.639 1.621 1.621 0 0 0-.618-.462 2.1 2.1 0 0 0-.902-.177c-.469 0-.864.1-1.186.298-.322.194-.483.455-.483.781 0 .26.104.48.313.66.208.18.566.325 1.072.434l1.974.398c1.061.218 1.852.568 2.373 1.05.52.484.78 1.118.78 1.904 0 .715-.21 1.343-.631 1.882-.417.54-.99.962-1.719 1.265-.724.298-1.56.447-2.507.447-1.444 0-2.595-.3-3.452-.902-.852-.606-1.351-1.43-1.498-2.472l2.976-.156c.09.44.307.777.653 1.009.346.227.788.34 1.328.34.53 0 .957-.101 1.279-.305.326-.208.492-.476.497-.802a.835.835 0 0 0-.348-.675c-.228-.18-.578-.317-1.052-.412l-1.889-.376c-1.065-.213-1.858-.583-2.379-1.108-.516-.526-.774-1.196-.774-2.01 0-.701.19-1.305.568-1.811.384-.507.921-.898 1.612-1.172.696-.275 1.51-.412 2.443-.412 1.378 0 2.463.291 3.253.873.796.583 1.26 1.376 1.392 2.38Zm3.622 11.889c-.383 0-.743-.03-1.08-.092a3.927 3.927 0 0 1-.823-.22l.681-2.26c.355.11.675.169.96.178.288.01.537-.056.745-.198.213-.142.386-.384.518-.725l.178-.462-3.913-11.221h3.181l2.259 8.011h.114l2.28-8.011h3.203l-4.24 12.088a5.076 5.076 0 0 1-.832 1.534c-.345.44-.783.779-1.313 1.016-.53.241-1.17.362-1.918.362Zm14.028-3.878c-1.117 0-2.078-.237-2.883-.71a4.801 4.801 0 0 1-1.847-1.989c-.426-.847-.639-1.823-.639-2.926 0-1.117.215-2.097.646-2.94a4.801 4.801 0 0 1 1.854-1.982c.8-.478 1.752-.717 2.855-.717.952 0 1.785.173 2.5.518a4.18 4.18 0 0 1 1.697 1.456c.417.625.647 1.36.69 2.202h-2.856c-.08-.544-.293-.982-.639-1.314-.34-.336-.788-.504-1.342-.504-.469 0-.879.128-1.229.383-.346.251-.615.618-.81 1.101-.194.483-.29 1.068-.29 1.755 0 .696.094 1.287.283 1.775.194.488.467.86.817 1.115.35.256.76.384 1.229.384.345 0 .656-.071.93-.213.28-.142.51-.348.69-.618.184-.275.305-.604.361-.988h2.855c-.047.834-.274 1.568-.681 2.202a4.118 4.118 0 0 1-1.67 1.477c-.71.355-1.55.533-2.52.533Zm9.435-6.52V19H46.6V4.455h2.94v5.56h.128a3.088 3.088 0 0 1 1.193-1.512c.55-.37 1.238-.554 2.067-.554.757 0 1.418.166 1.981.497a3.32 3.32 0 0 1 1.321 1.413c.318.611.474 1.343.469 2.195V19h-3.026v-6.406c.005-.673-.165-1.196-.51-1.57-.342-.374-.82-.56-1.436-.56-.411 0-.776.087-1.093.262-.313.175-.559.43-.739.767-.175.331-.265.731-.27 1.2Zm13.984 6.52c-1.103 0-2.057-.234-2.862-.703a4.81 4.81 0 0 1-1.854-1.975c-.435-.847-.653-1.83-.653-2.947 0-1.127.218-2.112.653-2.954a4.754 4.754 0 0 1 1.854-1.975c.805-.473 1.759-.71 2.862-.71 1.103 0 2.055.237 2.855.71a4.74 4.74 0 0 1 1.86 1.974c.436.843.654 1.828.654 2.955 0 1.118-.218 2.1-.653 2.947a4.797 4.797 0 0 1-1.86 1.975c-.801.469-1.753.703-2.856.703Zm.014-2.344c.502 0 .921-.142 1.257-.426.337-.289.59-.682.76-1.179.175-.497.263-1.063.263-1.697 0-.635-.088-1.2-.263-1.698-.17-.497-.424-.89-.76-1.179-.336-.288-.755-.433-1.257-.433-.506 0-.932.145-1.278.433-.341.29-.6.682-.774 1.18-.17.497-.256 1.062-.256 1.697 0 .634.085 1.2.256 1.697.175.497.433.89.774 1.18.346.283.772.425 1.278.425Zm9.948-12.414V19h-3.025V4.455h3.025Zm6.953 14.758c-1.103 0-2.057-.234-2.862-.703a4.811 4.811 0 0 1-1.854-1.975c-.436-.847-.654-1.83-.654-2.947 0-1.127.218-2.112.654-2.954a4.755 4.755 0 0 1 1.854-1.975c.805-.473 1.759-.71 2.862-.71 1.103 0 2.055.237 2.855.71a4.741 4.741 0 0 1 1.86 1.974c.436.843.654 1.828.654 2.955 0 1.118-.218 2.1-.653 2.947a4.797 4.797 0 0 1-1.861 1.975c-.8.469-1.752.703-2.855.703Zm.014-2.344c.502 0 .921-.142 1.257-.426.336-.289.59-.682.76-1.179.175-.497.263-1.063.263-1.697 0-.635-.088-1.2-.263-1.698-.17-.497-.424-.89-.76-1.179-.336-.288-.755-.433-1.257-.433-.507 0-.933.145-1.278.433-.341.29-.6.682-.775 1.18-.17.497-.255 1.062-.255 1.697 0 .634.085 1.2.255 1.697.176.497.434.89.775 1.18.345.283.771.425 1.278.425Zm11.837 6.45c-.98 0-1.82-.136-2.521-.406-.696-.265-1.25-.627-1.662-1.086a3.341 3.341 0 0 1-.802-1.549l2.798-.376c.085.218.22.421.405.61.184.19.428.342.731.455.308.119.682.178 1.122.178.659 0 1.2-.161 1.627-.483.43-.317.646-.85.646-1.598v-1.996h-.128c-.132.303-.331.59-.596.86-.266.27-.607.49-1.023.66-.417.17-.914.256-1.492.256-.819 0-1.565-.19-2.237-.568-.667-.384-1.2-.969-1.598-1.755-.393-.79-.59-1.79-.59-2.997 0-1.236.202-2.268.604-3.096.403-.829.938-1.45 1.605-1.861a4.148 4.148 0 0 1 2.21-.618c.61 0 1.121.104 1.533.312.412.204.744.46.995.767.255.303.452.602.59.895h.113V8.091h3.004v11.016c0 .928-.227 1.704-.682 2.33-.454.624-1.084 1.093-1.889 1.405-.8.318-1.721.476-2.763.476Zm.064-6.748c.488 0 .9-.12 1.236-.362.34-.246.601-.597.781-1.051.185-.46.277-1.009.277-1.648 0-.64-.09-1.193-.27-1.662-.18-.474-.44-.84-.78-1.1-.342-.261-.756-.391-1.244-.391-.497 0-.916.135-1.257.404-.34.266-.599.635-.774 1.108-.175.474-.263 1.02-.263 1.64 0 .63.088 1.175.263 1.634.18.455.438.808.774 1.059.341.246.76.369 1.257.369ZM99.717 19V8.09h3.025V19h-3.025Zm1.52-12.315c-.45 0-.836-.15-1.158-.448a1.45 1.45 0 0 1-.476-1.086c0-.417.159-.775.476-1.073a1.63 1.63 0 0 1 1.158-.454c.449 0 .833.151 1.15.454.322.298.483.656.483 1.073 0 .421-.161.783-.483 1.086a1.619 1.619 0 0 1-1.15.448Zm12.606 4.517-2.77.17a1.431 1.431 0 0 0-.306-.639 1.62 1.62 0 0 0-.617-.462 2.1 2.1 0 0 0-.902-.177c-.469 0-.865.1-1.187.298-.322.194-.483.455-.483.781 0 .26.105.48.313.66.208.18.566.325 1.072.434l1.975.398c1.06.218 1.851.568 2.372 1.05.521.484.781 1.118.781 1.904 0 .715-.21 1.343-.632 1.882-.417.54-.989.962-1.719 1.265-.724.298-1.56.447-2.507.447-1.444 0-2.594-.3-3.451-.902-.853-.606-1.352-1.43-1.499-2.472l2.976-.156c.09.44.308.777.653 1.009.346.227.789.34 1.328.34.531 0 .957-.101 1.279-.305.327-.208.492-.476.497-.802a.836.836 0 0 0-.348-.675c-.227-.18-.578-.317-1.051-.412l-1.889-.376c-1.066-.213-1.859-.583-2.38-1.108-.516-.526-.774-1.196-.774-2.01 0-.701.19-1.305.568-1.811.384-.507.921-.898 1.613-1.172.696-.275 1.51-.412 2.443-.412 1.378 0 2.462.291 3.253.873.795.583 1.259 1.376 1.392 2.38Zm7.556-3.111v2.273h-6.57V8.09h6.57Zm-5.078-2.614h3.025v10.17c0 .28.043.498.128.654a.71.71 0 0 0 .355.32c.157.061.337.092.54.092.142 0 .284-.012.426-.035.142-.029.251-.05.327-.064l.476 2.251a8.65 8.65 0 0 1-.639.163 5.134 5.134 0 0 1-1.002.121c-.729.029-1.368-.069-1.917-.291a2.676 2.676 0 0 1-1.272-1.037c-.303-.469-.452-1.06-.447-1.776V5.478Zm15.589 5.725-2.77.17a1.43 1.43 0 0 0-.305-.639 1.632 1.632 0 0 0-.618-.462 2.1 2.1 0 0 0-.902-.177c-.469 0-.864.1-1.186.298-.322.194-.483.455-.483.781 0 .26.104.48.312.66.208.18.566.325 1.073.434l1.974.398c1.061.218 1.851.568 2.372 1.05.521.484.781 1.118.781 1.904 0 .715-.21 1.343-.632 1.882-.416.54-.989.962-1.718 1.265-.725.298-1.561.447-2.508.447-1.444 0-2.594-.3-3.451-.902-.852-.606-1.352-1.43-1.499-2.472l2.976-.156c.09.44.308.777.653 1.009.346.227.789.34 1.329.34.53 0 .956-.101 1.278-.305.327-.208.492-.476.497-.802a.836.836 0 0 0-.348-.675c-.227-.18-.577-.317-1.051-.412l-1.889-.376c-1.066-.213-1.859-.583-2.379-1.108-.517-.526-.775-1.196-.775-2.01 0-.701.19-1.305.569-1.811.383-.507.921-.898 1.612-1.172.696-.275 1.51-.412 2.443-.412 1.378 0 2.462.291 3.253.873.795.583 1.259 1.376 1.392 2.38Zm3.373 7.933c-.388 0-.722-.137-1.001-.412a1.372 1.372 0 0 1-.419-1.008c0-.389.139-.72.419-.995.279-.28.613-.419 1.001-.419.388 0 .722.14 1.001.42.28.274.419.605.419.994 0 .26-.066.499-.198.717a1.473 1.473 0 0 1-.512.511c-.213.128-.45.192-.71.192Z"/><path fill="#191A15" d="m147.663 10.974-2.343.256a1.907 1.907 0 0 0-.348-.668 1.728 1.728 0 0 0-.654-.504c-.274-.128-.61-.192-1.008-.192-.535 0-.985.116-1.35.348-.359.232-.537.533-.532.902a.942.942 0 0 0 .348.775c.241.198.639.362 1.193.49l1.861.397c1.032.223 1.799.576 2.301 1.059.506.483.762 1.115.767 1.896a2.966 2.966 0 0 1-.604 1.818c-.393.521-.94.928-1.64 1.222-.701.293-1.506.44-2.415.44-1.335 0-2.41-.28-3.225-.838-.814-.563-1.299-1.347-1.456-2.35l2.507-.242c.114.492.356.864.725 1.115.369.25.85.376 1.442.376.61 0 1.101-.125 1.47-.376.374-.251.561-.561.561-.93a.97.97 0 0 0-.362-.775c-.237-.203-.606-.36-1.108-.469l-1.861-.39c-1.046-.218-1.821-.585-2.322-1.101-.502-.52-.751-1.179-.746-1.975-.005-.672.177-1.254.547-1.747.374-.497.892-.88 1.555-1.15.668-.275 1.437-.412 2.308-.412 1.279 0 2.285.272 3.019.817.738.544 1.195 1.28 1.37 2.208Zm6.784 8.24c-1.093 0-2.038-.228-2.833-.683a4.616 4.616 0 0 1-1.826-1.946c-.426-.843-.639-1.835-.639-2.976 0-1.122.213-2.107.639-2.954.431-.852 1.033-1.515 1.804-1.989.772-.478 1.679-.717 2.72-.717a5.51 5.51 0 0 1 1.904.327 4.303 4.303 0 0 1 1.591.994c.464.45.828 1.023 1.094 1.719.265.69.397 1.515.397 2.471v.789h-8.941v-1.733h6.477a2.76 2.76 0 0 0-.32-1.314 2.32 2.32 0 0 0-.873-.916c-.37-.223-.801-.334-1.293-.334-.526 0-.987.127-1.385.383a2.636 2.636 0 0 0-.93.994 2.863 2.863 0 0 0-.334 1.343v1.513c0 .634.116 1.179.348 1.633.232.45.556.796.973 1.037.417.237.904.355 1.463.355.374 0 .713-.052 1.016-.156.303-.109.565-.267.788-.476a1.98 1.98 0 0 0 .504-.774l2.401.27a3.75 3.75 0 0 1-.867 1.662c-.421.468-.961.833-1.619 1.093-.658.256-1.411.384-2.259.384Zm6.626-.214V8.09h2.493v1.82h.114c.199-.63.54-1.116 1.023-1.457a2.813 2.813 0 0 1 1.669-.518c.142 0 .3.007.476.021.179.01.329.026.447.05v2.365a2.715 2.715 0 0 0-.519-.1 4.765 4.765 0 0 0-.674-.05 2.6 2.6 0 0 0-1.264.306 2.23 2.23 0 0 0-.874.831c-.213.355-.32.765-.32 1.229V19h-2.571Zm17.606-10.91L174.794 19h-2.84l-3.885-10.91h2.741l2.507 8.105h.114l2.514-8.104h2.734Zm1.38 10.91V8.09h2.571V19h-2.571Zm1.292-12.457a1.5 1.5 0 0 1-1.051-.405 1.303 1.303 0 0 1-.44-.987c0-.389.146-.718.44-.988a1.486 1.486 0 0 1 1.051-.412c.412 0 .762.138 1.051.412.294.27.441.6.441.988 0 .383-.147.712-.441.987-.289.27-.639.405-1.051.405Zm8.281 12.67c-1.089 0-2.024-.239-2.806-.717a4.789 4.789 0 0 1-1.796-1.982c-.417-.847-.625-1.823-.625-2.926 0-1.108.213-2.086.639-2.933.426-.852 1.027-1.515 1.804-1.989.781-.478 1.704-.717 2.77-.717.885 0 1.669.163 2.351.49a4.017 4.017 0 0 1 1.64 1.37c.407.588.639 1.274.696 2.06h-2.457a2.353 2.353 0 0 0-.71-1.314c-.37-.355-.865-.532-1.485-.532-.525 0-.987.142-1.385.426-.397.28-.708.682-.93 1.207-.218.526-.327 1.156-.327 1.89 0 .743.109 1.382.327 1.917.218.53.523.94.916 1.229.398.284.864.426 1.399.426.379 0 .718-.071 1.016-.213.303-.147.556-.358.76-.632.203-.275.343-.609.419-1.002h2.457c-.061.772-.289 1.456-.682 2.053a4.038 4.038 0 0 1-1.605 1.392c-.677.331-1.472.497-2.386.497Zm11.214 0c-1.094 0-2.038-.227-2.834-.682a4.614 4.614 0 0 1-1.825-1.946c-.426-.843-.639-1.835-.639-2.976 0-1.122.213-2.107.639-2.954.431-.852 1.032-1.515 1.804-1.989.772-.478 1.678-.717 2.72-.717.672 0 1.307.109 1.903.327a4.295 4.295 0 0 1 1.591.994c.464.45.829 1.023 1.094 1.719.265.69.398 1.515.398 2.471v.789h-8.942v-1.733h6.477a2.76 2.76 0 0 0-.319-1.314 2.33 2.33 0 0 0-.874-.916c-.369-.223-.8-.334-1.293-.334-.525 0-.987.127-1.384.383a2.646 2.646 0 0 0-.931.994 2.863 2.863 0 0 0-.334 1.343v1.513c0 .634.116 1.179.348 1.633.232.45.557.796.973 1.037.417.237.905.355 1.463.355.374 0 .713-.052 1.016-.156.303-.109.566-.267.788-.476.223-.208.391-.466.505-.774l2.4.27a3.738 3.738 0 0 1-.866 1.662c-.422.468-.961.833-1.62 1.093-.658.256-1.411.384-2.258.384Zm15.248-8.239-2.344.256a1.874 1.874 0 0 0-.348-.668 1.733 1.733 0 0 0-.653-.504c-.275-.128-.611-.192-1.009-.192-.535 0-.985.116-1.349.348-.36.232-.538.533-.533.902a.942.942 0 0 0 .348.775c.242.198.639.362 1.193.49l1.861.397c1.032.223 1.799.576 2.301 1.059.507.483.763 1.115.767 1.896a2.966 2.966 0 0 1-.603 1.818c-.393.521-.94.928-1.641 1.222-.701.293-1.506.44-2.415.44-1.335 0-2.41-.28-3.224-.838-.815-.563-1.3-1.347-1.456-2.35l2.507-.242c.114.492.355.864.724 1.115.37.25.85.376 1.442.376.611 0 1.101-.125 1.47-.376.374-.251.561-.561.561-.93 0-.313-.12-.571-.362-.775-.237-.203-.606-.36-1.108-.469l-1.861-.39c-1.046-.218-1.82-.585-2.322-1.101-.502-.52-.75-1.179-.746-1.975-.004-.672.178-1.254.547-1.747.374-.497.893-.88 1.556-1.15.667-.275 1.437-.412 2.308-.412 1.278 0 2.284.272 3.018.817.739.544 1.196 1.28 1.371 2.208Z"/></svg>